<?xml version="1.0" encoding="UTF-8"?>
<svg id="Layer_2" data-name="Layer 2" xmlns="http://www.w3.org/2000/svg" viewBox="0 0 500 500">
  <defs>
    <style>
      .cls-1 {
        fill: #0073aa;
      }

      .cls-2 {
        fill: #00a0d2;
      }

      .cls-3 {
        fill: #f6f7f7;
      }
    </style>
  </defs>
  <g id="Layer_1-2" data-name="Layer 1">
    <g>
      <rect class="cls-3" width="500" height="500"/>
      <g>
        <path class="cls-1" d="M136.86,238.69l113.14,113.14,45.25-45.25-113.14-113.14,11.31-11.31,56.57,56.57,45.25-45.25-56.57-56.57-45.25-45.25L57.67,227.37c-12.5,12.5-12.5,32.76,0,45.25l22.63,22.63,147.08,147.08c12.5,12.5,32.76,12.5,45.25,0l22.63-22.63L125.55,250l11.31-11.31Z"/>
        <path class="cls-2" d="M442.33,227.37L272.63,57.67c-12.5-12.5-32.76-12.5-45.25,0l-22.63,22.63,113.14,113.14-56.57,56.57,45.25,45.25,56.57-56.57,11.31,11.31-113.14,113.14,45.25,45.25,113.14-113.14,22.63-22.63c12.5-12.5,12.5-32.76,0-45.25Z"/>
      </g>
    </g>
  </g>
</svg>