<?xml version="1.0" encoding="UTF-8"?>
<svg id="Layer_1" data-name="Layer 1" xmlns="http://www.w3.org/2000/svg" viewBox="0 0 640 512">
  <defs>
    <style>
      .cls-1 {
        fill: #282b2d;
      }

      .cls-2 {
        fill: #f4c2b5;
      }

      .cls-3 {
        fill: #9fe0f3;
      }
    </style>
  </defs>
  <path class="cls-2" d="M567.19,281.06v23.73h-45.07v40.03l-66.87-17.61v-22.41h-30.53v-23.73h30.53v-49.11c0-17.2.97-23.96,9.22-30.91,9.68-8.46,35.88-11.52,56.22-11.52,6.77,0,30.54.44,52.34,4.54l-5.82,23.08-1.93-.22c-8.24-1.59-15.99-2.62-24.7-2.62-18.43,0-18.43,5.26-18.43,21.32v45.44h45.07-.01Z"/>
  <path class="cls-3" d="M129.04,195.29v15.37h.91c27.21-16.63,55.31-17.96,72.1-17.96,45.34,0,60.76,13.13,66.66,17.96,10.41-6.12,33.08-17.96,71.62-17.96,77.11,0,77.11,30.87,77.11,43.34v72.72h-62.13v-64.78c0-13.4,0-28.28-33.1-28.28-16.32,0-33.1,5.04-38.98,12.47-5.44,6.35-7.72,12.03-7.72,26.06v54.55h-62.13v-62.22c0-19.25.44-30.86-32.18-30.86-16.33,0-33.1,4.38-39.46,10.94-4.98,5.03-8.18,10.29-8.18,26.97v55.17h-62.08v-113.5h57.56Z"/>
  <path class="cls-1" d="M129.04,205.8v15.37h.91c27.21-16.63,55.31-17.96,72.1-17.96,45.34,0,60.76,13.13,66.66,17.96,10.41-6.12,33.08-17.96,71.62-17.96,77.11,0,77.11,30.87,77.11,43.34v72.72h-62.13v-64.78c0-13.4,0-28.28-33.1-28.28-16.32,0-33.1,5.04-38.98,12.47-5.44,6.35-7.72,12.03-7.72,26.06v54.55h-62.13v-62.22c0-19.25.44-30.86-32.18-30.86-16.33,0-33.1,4.38-39.46,10.94-4.98,5.03-8.18,10.29-8.18,26.97v55.17h-62.08v-113.5h57.56Z"/>
  <path class="cls-1" d="M41.08,383.44C16.37,345.61,0,300.67,0,255.45c0-53.38,20.68-96.9,41.59-127.45h24.99c-18.52,41.68-31.14,77.06-31.14,128.55,0,59.07,20.65,104.6,30.05,125.22.26.31.83,1.38.83,1.65h-25.24Z"/>
  <path class="cls-1" d="M598.94,128.56c24.69,37.82,41.06,82.8,41.06,127.99,0,53.36-20.66,96.9-41.57,127.45h-24.99c18.53-41.73,31.16-77.09,31.16-128.55,0-59.11-20.67-104.56-30.08-125.26-.26-.27-.79-1.37-.79-1.63h25.22Z"/>
  <path class="cls-3" d="M567.19,258.73v23.73h-45.07v40.03l-66.87-17.61v-22.41h-30.53v-23.73h30.53v-49.11c0-17.2.97-23.96,9.22-30.91,9.68-8.46,35.88-11.52,56.22-11.52,6.77,0,30.54.44,52.34,4.54l-5.82,23.08-1.93-.22c-8.24-1.59-15.99-2.62-24.7-2.62-18.43,0-18.43,5.26-18.43,21.32v45.44h45.07-.01Z"/>
  <path class="cls-1" d="M567.19,269.89v23.73h-45.07v40.03l-66.87-17.61v-22.41h-30.53v-23.73h30.53v-49.11c0-17.2.97-23.96,9.22-30.91,9.68-8.46,35.88-11.52,56.22-11.52,6.77,0,30.54.44,52.34,4.54l-5.82,23.08-1.93-.22c-8.24-1.59-15.99-2.62-24.7-2.62-18.43,0-18.43,5.26-18.43,21.32v45.44h45.07-.01Z"/>
</svg>