<?xml version="1.0" encoding="UTF-8"?>
<svg id="Layer_1" data-name="Layer 1" xmlns="http://www.w3.org/2000/svg" viewBox="0 0 512 512">
  <defs>
    <style>
      .cls-1 {
        fill: #1d2327;
      }
    </style>
  </defs>
  <path class="cls-1" d="M453.77,276.05h-36.06v-36.35c0-12.85,0-17.06,14.75-17.06,6.97,0,13.17.83,19.76,2.1l1.55.17,4.66-18.46c-17.44-3.29-36.45-3.64-41.87-3.64-16.27,0-37.23,2.45-44.97,9.22-6.59,5.56-7.37,10.97-7.37,24.73v39.29h-24.42v18.98h24.42v17.93l53.49,14.09v-32.02h36.06v-18.98h.01Z"/>
  <path class="cls-1" d="M103.23,215.84v12.3h.73c21.77-13.3,44.25-14.37,57.68-14.37,36.27,0,48.61,10.51,53.33,14.37,8.33-4.89,26.46-14.37,57.29-14.37,61.69,0,61.69,24.7,61.69,34.67v58.17h-49.7v-51.82c0-10.72,0-22.62-26.48-22.62-13.06,0-26.48,4.03-31.18,9.97-4.35,5.08-6.17,9.63-6.17,20.85v43.64h-49.7v-49.78c0-15.4.35-24.69-25.74-24.69-13.07,0-26.48,3.5-31.57,8.76-3.98,4.02-6.54,8.23-6.54,21.58v44.13h-49.66v-90.8h46.05Z"/>
  <path class="cls-1" d="M32.86,357.95C13.1,327.69,0,291.74,0,255.56c0-42.7,16.55-77.52,33.27-101.96h19.99c-14.82,33.34-24.91,61.64-24.91,102.84,0,47.26,16.52,83.68,24.04,100.18.2.25.67,1.11.67,1.32h-20.19Z"/>
  <path class="cls-1" d="M479.15,154.05c19.75,30.26,32.85,66.24,32.85,102.39,0,42.69-16.53,77.52-33.26,101.96h-19.99c14.83-33.38,24.92-61.68,24.92-102.84,0-47.29-16.54-83.65-24.06-100.21-.2-.22-.63-1.1-.63-1.3h20.17Z"/>
</svg>