<?xml version="1.0" encoding="UTF-8"?>
<svg id="Layer_1" data-name="Layer 1" xmlns="http://www.w3.org/2000/svg" viewBox="0 0 640 640">
  <defs>
    <style>
      .cls-1 {
        fill: #fff;
      }

      .cls-2 {
        fill: #1d2327;
      }
    </style>
  </defs>
  <rect class="cls-1" width="640" height="640"/>
  <g>
    <path class="cls-2" d="M543.13,219.5h-20.24c.1.49.32.94.61,1.32,15.27,30.68,23.49,64.42,24.07,98.7,0,40.57-10.12,68.46-24.67,101.33h19.79c21.15-29.24,32.78-64.29,33.32-100.37-.9-36.12-12.34-71.23-32.87-100.99Z"/>
    <path class="cls-2" d="M97.32,219.15c-21.17,29.27-32.81,64.36-33.32,100.5.9,36.08,12.34,71.14,32.87,100.85h20.24c-.1-.49-.32-.93-.61-1.32-15.3-30.69-23.49-64.42-24.07-98.7,0-40.58,10.12-68.46,24.67-101.34h-19.79Z"/>
    <path class="cls-2" d="M336.29,278.42c-20.08-.64-39.9,4.28-57.38,14.2-4.75-3.82-17.03-14.2-53.36-14.2-20.18-.73-40.16,4.18-57.74,14.2h-.81v-12.34h-46.07v89.45h49.67v-43.18c0-13.2,2.57-17.29,6.52-21.3,5.14-5.11,18.51-8.58,31.65-8.58,26.08,0,25.73,9.13,25.73,24.32v49.03h49.35v-43.18c-.93-7.42,1.32-14.9,6.17-20.6,4.7-6.17,18.13-9.86,31.2-9.86,26.54.07,26.54,11.83,26.54,22.33v51.18h49.96v-57.29c0-9.89,0-34.19-61.69-34.19h.25Z"/>
    <path class="cls-2" d="M517.78,271.77l4.62-18.21c-13.84-2.29-27.85-3.47-41.89-3.57-16.23,0-37.28,2.6-45.11,9.44-6.65,5.79-7.45,10.73-7.45,24.3v16.23h-24.67v18.51h24.67v51.44h53.72v-51.44h36.12v-18.51h-36.12v-13.56c0-12.72,0-16.77,14.68-16.77,6.69,0,13.34.67,19.89,2.02v.12h1.55Z"/>
  </g>
</svg>