<?xml version="1.0" encoding="UTF-8"?>
<svg id="Layer_1" data-name="Layer 1" xmlns="http://www.w3.org/2000/svg" viewBox="0 0 420 420">
  <defs>
    <style>
      .cls-1 {
        fill: #282b2d;
      }
    </style>
  </defs>
  <path class="cls-1" d="M71.39,279.09h-13.89c-15-22.62-22.5-45.69-22.5-69.2s7.61-47.23,22.83-68.98h13.78c-11.54,25.42-17.31,48.55-17.31,69.42s5.7,44,17.09,68.75Z"/>
  <g>
    <path class="cls-1" d="M73.36,184.42h31.06v8.73c11.15-6.74,24.38-10.11,39.7-10.11,16.42,0,28.42,3.37,36.02,10.11,11.15-6.74,24.14-10.11,38.96-10.11,27.81,0,41.72,8.14,41.72,24.41v40.65h-33.82v-36.33c0-7.22-1.72-11.66-5.15-13.35-3.43-1.68-7.66-2.52-12.68-2.52-16.66,0-25,7.22-25,21.65v30.55h-33.82v-34.86c0-5.2-.92-9.39-2.76-12.57-1.84-3.18-6.8-4.77-14.89-4.77-7.35,0-13.45,1.18-18.29,3.53-4.84,2.35-7.26,8.27-7.26,17.75v30.91h-33.82v-63.68Z"/>
    <path class="cls-1" d="M264.69,184.42h18.75v-4.78c0-13.97,13.05-20.95,39.15-20.95,9.56,0,14.89.7,24.08,2.1l-4.41,11.68c-5.39-.61-6.56-.92-11.58-.92-9.07,0-13.6,2.78-13.6,8.33v4.54h25.18v13.23h-25.18v50.45h-33.63v-50.45h-18.75v-13.23Z"/>
  </g>
  <path class="cls-1" d="M348.39,279.09c11.47-24.39,17.2-47.31,17.2-68.75s-5.73-44.07-17.2-69.42h13.67c15.29,21.67,22.94,44.33,22.94,67.98s-7.52,47.42-22.56,70.19h-14.05Z"/>
</svg>